<svg xmlns="http://www.w3.org/2000/svg" viewBox="0 0 400 120" width="400" height="120">
  <defs>
    <linearGradient id="redGrad" x1="0%" y1="0%" x2="100%" y2="0%">
      <stop offset="0%" style="stop-color:#E50914;stop-opacity:1" />
      <stop offset="100%" style="stop-color:#B20710;stop-opacity:1" />
    </linearGradient>
  </defs>
  
  <rect width="400" height="120" fill="#000000" rx="8"/>
  
  <g fill="url(#redGrad)" transform="translate(20, 80)">
    <path d="M 0,0 L 0,-60 L 45,-60 L 45,-45 L 18,-45 L 18,-35 L 40,-35 L 40,-20 L 18,-20 L 18,0 Z"/>
    <path d="M 55,0 L 55,-60 L 73,-60 L 73,-15 L 100,-15 L 100,0 Z"/>
    <path d="M 110,0 L 110,-60 L 128,-60 L 128,0 Z"/>
    <path d="M 138,-60 L 158,-60 L 171,-35 L 184,-60 L 204,-60 L 183,-25 L 206,0 L 186,0 L 171,-28 L 156,0 L 136,0 L 159,-25 Z"/>
    <path d="M 216,-30 C 216,-45 223,-62 245,-62 C 267,-62 274,-45 274,-30 C 274,-15 267,2 245,2 C 223,2 216,-15 216,-30 Z M 234,-30 C 234,-20 237,-13 245,-13 C 253,-13 256,-20 256,-30 C 256,-40 253,-47 245,-47 C 237,-47 234,-40 234,-30 Z"/>
    <path d="M 284,0 L 284,-60 L 318,-60 C 330,-60 337,-52 337,-42 C 337,-34 333,-28 326,-26 L 340,0 L 320,0 L 309,-24 L 302,-24 L 302,0 Z M 302,-38 L 314,-38 C 318,-38 320,-40 320,-43 C 320,-46 318,-48 314,-48 L 302,-48 Z"/>
  </g>
</svg>
